<svg xmlns="http://www.w3.org/2000/svg" width="256" height="256" viewBox="0 0 100 100"><rect width="100" height="100" rx="20" fill="#080809"></rect><path fill="#e0e0e0" d="M10.92 68.20L18.20 31.80L32.03 31.80Q37.44 31.80 41.32 33.62Q45.19 35.44 47.19 38.79Q49.19 42.15 49.19 46.62L49.19 46.62Q49.19 52.96 46.39 57.85Q43.58 62.74 38.46 65.47Q33.33 68.20 26.57 68.20L26.57 68.20L10.92 68.20ZM15.39 64.87L26.68 64.87Q32.35 64.87 36.58 62.56Q40.82 60.24 43.08 56.14Q45.35 52.03 45.35 46.78L45.35 46.78Q45.35 41.37 41.86 38.25Q38.38 35.13 31.62 35.13L31.62 35.13L21.32 35.13L15.39 64.87ZM70.98 68.51Q65.68 68.51 61.83 66.61Q57.98 64.72 55.98 61.31Q53.98 57.90 53.98 53.38L53.98 53.38Q53.98 47.35 56.71 42.36Q59.44 37.36 64.48 34.43Q69.53 31.49 76.13 31.49L76.13 31.49Q80.50 31.49 83.88 32.87Q87.26 34.24 89.08 36.79L89.08 36.79L86.37 39.18Q82.89 34.92 75.82 34.92L75.82 34.92Q70.46 34.92 66.35 37.39Q62.25 39.86 60.01 44.02Q57.77 48.18 57.77 53.17L57.77 53.17Q57.77 58.63 61.28 61.86Q64.79 65.08 71.29 65.08L71.29 65.08Q78.42 65.08 82.84 60.76L82.84 60.76L85.07 63.31Q82.68 65.81 78.99 67.16Q75.30 68.51 70.98 68.51L70.98 68.51Z"></path></svg>